<svg width="158" height="17" viewBox="0 0 158 17" fill="none" xmlns="http://www.w3.org/2000/svg">
<path d="M45.5809 15.8381V2.51625H48.0949L52.1826 8.81559L56.2704 2.51625H58.7844V15.8381H56.4239V6.28444L52.1826 12.5647H52.1059L47.903 6.3225V15.8381H45.5809ZM64.8541 16.0475C62.9542 16.0475 61.2654 14.9627 61.2654 12.9454V12.9073C61.2654 10.7377 62.9734 9.672 65.449 9.672C66.5813 9.672 67.3873 9.84328 68.1742 10.0907V9.84328C68.1742 8.41594 67.2914 7.65469 65.6601 7.65469C64.5279 7.65469 63.6834 7.90209 62.7623 8.28272L62.1482 6.47475C63.2612 5.97994 64.3551 5.65641 65.9672 5.65641C67.4833 5.65641 68.6156 6.05606 69.3257 6.77925C70.0741 7.50244 70.4195 8.56819 70.4195 9.88134V15.8381H68.155V14.5821C67.4641 15.4004 66.4086 16.0475 64.8541 16.0475ZM65.5066 14.3727C67.0419 14.3727 68.2126 13.4973 68.2126 12.2222V11.5371C67.6176 11.3087 66.8308 11.1374 65.9096 11.1374C64.4127 11.1374 63.5299 11.7654 63.5299 12.8122V12.8502C63.5299 13.8208 64.3935 14.3727 65.5066 14.3727ZM76.4701 16.0094C74.7621 16.0094 73.553 15.2672 73.553 13.0596V7.76887H72.2672V5.78962H73.553V3.03009H75.8751V5.78962H78.6003V7.76887H75.8751V12.698C75.8751 13.5924 76.3357 13.954 77.1226 13.954C77.6407 13.954 78.1013 13.8398 78.5619 13.6115V15.4956C77.9862 15.8191 77.3529 16.0094 76.4701 16.0094ZM80.9277 15.8381V1.94531H83.2498V7.33116C83.9023 6.39862 84.8427 5.58028 86.4164 5.58028C88.7001 5.58028 90.0243 7.10278 90.0243 9.42459V15.8381H87.7022V10.1287C87.7022 8.56819 86.9154 7.67372 85.5336 7.67372C84.1902 7.67372 83.2498 8.60625 83.2498 10.1668V15.8381H80.9277ZM102.432 15.9333L97.7498 2.51625H100.302L103.507 12.3935L106.808 2.47819H108.804L112.105 12.3935L115.31 2.51625H117.785L113.122 15.9333H111.068L107.768 6.36056L104.467 15.9333H102.432ZM121.475 16.0475C119.575 16.0475 117.887 14.9627 117.887 12.9454V12.9073C117.887 10.7377 119.595 9.672 122.07 9.672C123.203 9.672 124.009 9.84328 124.795 10.0907V9.84328C124.795 8.41594 123.913 7.65469 122.281 7.65469C121.149 7.65469 120.305 7.90209 119.384 8.28272L118.769 6.47475C119.882 5.97994 120.976 5.65641 122.588 5.65641C124.105 5.65641 125.237 6.05606 125.947 6.77925C126.695 7.50244 127.041 8.56819 127.041 9.88134V15.8381H124.776V14.5821C124.085 15.4004 123.03 16.0475 121.475 16.0475ZM122.128 14.3727C123.663 14.3727 124.834 13.4973 124.834 12.2222V11.5371C124.239 11.3087 123.452 11.1374 122.531 11.1374C121.034 11.1374 120.151 11.7654 120.151 12.8122V12.8502C120.151 13.8208 121.015 14.3727 122.128 14.3727ZM129.925 15.8381V1.94531H132.247V15.8381H129.925ZM135.38 15.8381V1.94531H137.702V15.8381H135.38ZM145.346 16.0665C142.41 16.0665 140.145 13.954 140.145 10.8519V10.8139C140.145 7.94016 142.199 5.58028 145.096 5.58028C148.321 5.58028 149.952 8.09241 149.952 10.9852C149.952 11.1945 149.933 11.4038 149.913 11.6322H142.467C142.717 13.2689 143.887 14.1824 145.384 14.1824C146.517 14.1824 147.323 13.7637 148.129 12.9834L149.491 14.1824C148.532 15.3243 147.207 16.0665 145.346 16.0665ZM142.448 10.1097H147.649C147.495 8.62528 146.612 7.46437 145.077 7.46437C143.657 7.46437 142.659 8.54916 142.448 10.1097ZM155.657 16.0094C153.949 16.0094 152.74 15.2672 152.74 13.0596V7.76887H151.454V5.78962H152.74V3.03009H155.062V5.78962H157.787V7.76887H155.062V12.698C155.062 13.5924 155.522 13.954 156.309 13.954C156.827 13.954 157.288 13.8398 157.749 13.6115V15.4956C157.173 15.8191 156.54 16.0094 155.657 16.0094ZM27.0008 6.95283C26.2474 6.20568 26.2474 4.9943 27.0008 4.24715C27.7543 3.5 28.9758 3.5 29.7293 4.24715C30.4827 4.9943 30.4827 6.20568 29.7293 6.95283C28.9758 7.69998 27.7543 7.69998 27.0008 6.95283ZM20.5209 13.3788C19.9558 12.8185 19.9558 11.9099 20.5209 11.3496C21.0859 10.7892 22.0021 10.7892 22.5672 11.3496C23.1322 11.9099 23.1322 12.8185 22.5672 13.3788C22.0021 13.9392 21.0859 13.9392 20.5209 13.3788ZM30.7524 9.99672C30.1873 9.43635 30.1873 8.52782 30.7524 7.96746C31.3175 7.40709 32.2337 7.40709 32.7987 7.96746C33.3638 8.52782 33.3638 9.43635 32.7987 9.99672C32.2337 10.5571 31.3175 10.5571 30.7524 9.99672ZM27.3419 13.3788C26.7768 12.8185 26.7768 11.9099 27.3419 11.3496C27.907 10.7892 28.8231 10.7892 29.3882 11.3496C29.9533 11.9099 29.9533 12.8185 29.3882 13.3788C28.8231 13.9392 27.907 13.9392 27.3419 13.3788ZM34.504 13.0406C34.1273 12.667 34.1273 12.0613 34.504 11.6878C34.8807 11.3142 35.4915 11.3142 35.8682 11.6878C36.2449 12.0613 36.2449 12.667 35.8682 13.0406C35.4915 13.4142 34.8807 13.4142 34.504 13.0406ZM31.0935 16.4227C30.7168 16.0491 30.7168 15.4434 31.0935 15.0699C31.4702 14.6963 32.081 14.6963 32.4577 15.0699C32.8344 15.4434 32.8344 16.0491 32.4577 16.4227C32.081 16.7963 31.4702 16.7963 31.0935 16.4227ZM23.5903 10.3349C22.8369 9.58778 22.8369 8.3764 23.5903 7.62925C24.3438 6.8821 25.5653 6.8821 26.3187 7.62925C27.0722 8.3764 27.0722 9.58778 26.3187 10.3349C25.5653 11.0821 24.3438 11.0821 23.5903 10.3349ZM23.5903 3.57073C22.8369 2.82358 22.8369 1.6122 23.5903 0.865052C24.3438 0.117899 25.5653 0.117899 26.3187 0.865052C27.0722 1.6122 27.0722 2.82358 26.3187 3.57073C25.5653 4.31788 24.3438 4.31788 23.5903 3.57073ZM20.1798 6.95283C19.4264 6.20568 19.4264 4.9943 20.1798 4.24715C20.9332 3.5 22.1548 3.5 22.9082 4.24715C23.6617 4.9943 23.6617 6.20568 22.9082 6.95283C22.1548 7.69998 20.9332 7.69998 20.1798 6.95283ZM13.3271 6.95283C12.5736 6.20568 12.5736 4.9943 13.3271 4.24715C14.0805 3.5 15.302 3.5 16.0555 4.24715C16.8089 4.9943 16.8089 6.20568 16.0555 6.95283C15.302 7.69998 14.0805 7.69998 13.3271 6.95283ZM6.84708 13.3788C6.28201 12.8185 6.28201 11.9099 6.84708 11.3496C7.41215 10.7892 8.32832 10.7892 8.89339 11.3496C9.45846 11.9099 9.45846 12.8185 8.89339 13.3788C8.32832 13.9392 7.41215 13.9392 6.84708 13.3788ZM17.0786 9.99672C16.5136 9.43635 16.5136 8.52782 17.0786 7.96746C17.6437 7.40709 18.5599 7.40709 19.1249 7.96746C19.69 8.52782 19.69 9.43635 19.1249 9.99672C18.5599 10.5571 17.6437 10.5571 17.0786 9.99672ZM13.6681 13.3788C13.103 12.8185 13.103 11.9099 13.6681 11.3496C14.2332 10.7892 15.1494 10.7892 15.7144 11.3496C16.2795 11.9099 16.2795 12.8185 15.7144 13.3788C15.1494 13.9392 14.2332 13.9392 13.6681 13.3788ZM0.367093 13.0406C-0.00962231 12.667 -0.00962231 12.0613 0.367093 11.6878C0.743809 11.3142 1.35458 11.3142 1.7313 11.6878C2.10802 12.0613 2.10802 12.667 1.7313 13.0406C1.35458 13.4142 0.743809 13.4142 0.367093 13.0406ZM3.77761 16.4227C3.4009 16.0491 3.4009 15.4434 3.77761 15.0699C4.15433 14.6963 4.7651 14.6963 5.14182 15.0699C5.51854 15.4434 5.51854 16.0491 5.14182 16.4227C4.7651 16.7963 4.15433 16.7963 3.77761 16.4227ZM17.4197 16.4227C17.043 16.0491 17.043 15.4434 17.4197 15.0699C17.7964 14.6963 18.4072 14.6963 18.7839 15.0699C19.1606 15.4434 19.1606 16.0491 18.7839 16.4227C18.4072 16.7963 17.7964 16.7963 17.4197 16.4227ZM3.43656 9.99672C2.87149 9.43635 2.87149 8.52782 3.43656 7.96746C4.00163 7.40709 4.9178 7.40709 5.48287 7.96746C6.04795 8.52782 6.04795 9.43635 5.48287 9.99672C4.9178 10.5571 4.00163 10.5571 3.43656 9.99672ZM9.91655 10.3349C9.16312 9.58778 9.16312 8.3764 9.91655 7.62925C10.67 6.8821 11.8915 6.8821 12.645 7.62925C13.3984 8.3764 13.3984 9.58778 12.645 10.3349C11.8915 11.0821 10.67 11.0821 9.91655 10.3349ZM9.91655 3.57073C9.16312 2.82358 9.16312 1.6122 9.91655 0.865052C10.67 0.117899 11.8915 0.117899 12.645 0.865052C13.3984 1.6122 13.3984 2.82358 12.645 3.57073C11.8915 4.31788 10.67 4.31788 9.91655 3.57073ZM6.50603 6.95283C5.7526 6.20568 5.7526 4.9943 6.50603 4.24715C7.25946 3.5 8.48101 3.5 9.23444 4.24715C9.98787 4.9943 9.98787 6.20568 9.23444 6.95283C8.48101 7.69998 7.25946 7.69998 6.50603 6.95283Z" fill="white"/>
</svg>
