<svg width="28" height="28" viewBox="0 0 28 28" fill="none" xmlns="http://www.w3.org/2000/svg">
<path d="M21.8673 8.97283C21.058 9.79698 20.1883 10.6883 19.1072 11.7932C17.6215 10.206 16.166 8.71643 14.789 7.15971C14.2093 6.5065 13.8408 6.51261 13.2671 7.15361C11.872 8.69812 10.4165 10.1816 8.93079 11.7505C7.9222 10.6272 7.08272 9.6932 6.27344 8.78969C8.79792 6.26842 11.4553 3.61895 14.0764 1C16.5284 3.51517 19.1495 6.20127 21.8673 8.97283Z" fill="#FFD657"/>
<path d="M6.26562 19.1136C7.05679 18.32 7.93855 17.4287 9.11624 16.2383C10.4932 17.7584 11.9487 19.2968 13.3197 20.9084C13.8814 21.5739 14.2437 21.4762 14.7691 20.9329C16.2247 19.4494 17.7164 17.9904 19.2142 16.5069C20.0537 17.4165 20.9173 18.3505 21.7809 19.2846C19.2504 21.7936 16.6051 24.4126 13.9901 27.001C11.4958 24.4553 8.86862 21.7753 6.26562 19.1136Z" fill="#FFD657"/>
<path d="M14.0768 11.2207C14.9887 12.1242 15.8946 13.0216 16.7703 13.8946C15.8161 14.8653 14.9102 15.7871 13.9137 16.8066C13.1044 15.8664 12.2649 14.8958 11.3711 13.8641C12.1321 13.1193 13.0682 12.2097 14.0768 11.2207Z" fill="#FFD657"/>
<path d="M3.66943 11.3467C4.5693 12.2197 5.4873 13.111 6.38113 13.9839C5.46314 14.9119 4.5693 15.8215 3.59696 16.8043C2.7454 15.8459 1.89988 14.8874 1 13.8741C1.82136 13.0926 2.75144 12.2075 3.66943 11.3467Z" fill="#FFD657"/>
<path d="M24.4216 11.2383C25.3155 12.1662 26.1851 13.0697 27.0005 13.9122C26.1187 14.8096 25.2067 15.7314 24.2525 16.7021C23.4312 15.8779 22.5373 14.9744 21.6133 14.0465C22.5675 13.088 23.4734 12.1845 24.4216 11.2383Z" fill="#FFD657"/>
</svg>
