<svg width="28" height="28" viewBox="0 0 28 28" fill="none" xmlns="http://www.w3.org/2000/svg">
<g clip-path="url(#clip0_8_202143)">
<path d="M26.616 0L15.6777 8.09357L17.7118 3.32377L26.616 0Z" fill="#E17726" stroke="#E17726" stroke-width="0.25" stroke-linecap="round" stroke-linejoin="round"/>
<path d="M1.38477 0L12.2257 8.1691L10.289 3.32376L1.38477 0Z" fill="#E27625" stroke="#E27625" stroke-width="0.25" stroke-linecap="round" stroke-linejoin="round"/>
<path d="M22.676 18.7656L19.7656 23.2117L25.9975 24.9276L27.7827 18.8628L22.676 18.7656Z" fill="#E27625" stroke="#E27625" stroke-width="0.25" stroke-linecap="round" stroke-linejoin="round"/>
<path d="M0.226562 18.8628L2.00091 24.9276L8.22202 23.2117L5.32243 18.7656L0.226562 18.8628Z" fill="#E27625" stroke="#E27625" stroke-width="0.25" stroke-linecap="round" stroke-linejoin="round"/>
<path d="M7.8873 11.2563L6.15625 13.8679L12.3232 14.1484L12.1177 7.51172L7.8873 11.2563Z" fill="#E27625" stroke="#E27625" stroke-width="0.25" stroke-linecap="round" stroke-linejoin="round"/>
<path d="M20.1136 11.2557L15.8184 7.43555L15.6777 14.1478L21.8447 13.8672L20.1136 11.2557Z" fill="#E27625" stroke="#E27625" stroke-width="0.25" stroke-linecap="round" stroke-linejoin="round"/>
<path d="M8.22266 23.212L11.9553 21.4099L8.742 18.9062L8.22266 23.212Z" fill="#E27625" stroke="#E27625" stroke-width="0.25" stroke-linecap="round" stroke-linejoin="round"/>
<path d="M16.0449 21.4099L19.7667 23.212L19.2582 18.9062L16.0449 21.4099Z" fill="#E27625" stroke="#E27625" stroke-width="0.25" stroke-linecap="round" stroke-linejoin="round"/>
<path d="M19.7667 23.2123L16.0449 21.4102L16.3478 23.8274L16.3153 24.8526L19.7667 23.2123Z" fill="#D5BFB2" stroke="#D5BFB2" stroke-width="0.25" stroke-linecap="round" stroke-linejoin="round"/>
<path d="M8.22266 23.2123L11.6848 24.8526L11.6632 23.8274L11.9553 21.4102L8.22266 23.2123Z" fill="#D5BFB2" stroke="#D5BFB2" stroke-width="0.25" stroke-linecap="round" stroke-linejoin="round"/>
<path d="M11.7506 17.3085L8.65625 16.4021L10.8417 15.3984L11.7506 17.3085Z" fill="#233447" stroke="#233447" stroke-width="0.25" stroke-linecap="round" stroke-linejoin="round"/>
<path d="M16.25 17.3085L17.1589 15.3984L19.3552 16.4021L16.25 17.3085Z" fill="#233447" stroke="#233447" stroke-width="0.25" stroke-linecap="round" stroke-linejoin="round"/>
<path d="M8.22376 23.2117L8.76475 18.7656L5.32422 18.8628L8.22376 23.2117Z" fill="#CC6228" stroke="#CC6228" stroke-width="0.25" stroke-linecap="round" stroke-linejoin="round"/>
<path d="M19.2363 18.7656L19.7665 23.2117L22.6769 18.8628L19.2363 18.7656Z" fill="#CC6228" stroke="#CC6228" stroke-width="0.25" stroke-linecap="round" stroke-linejoin="round"/>
<path d="M21.8447 13.8672L15.6777 14.1478L16.2511 17.3097L17.16 15.3996L19.3563 16.4032L21.8447 13.8672Z" fill="#CC6228" stroke="#CC6228" stroke-width="0.25" stroke-linecap="round" stroke-linejoin="round"/>
<path d="M8.65549 16.4032L10.841 15.3996L11.7498 17.3097L12.3232 14.1478L6.15625 13.8672L8.65549 16.4032Z" fill="#CC6228" stroke="#CC6228" stroke-width="0.25" stroke-linecap="round" stroke-linejoin="round"/>
<path d="M6.15625 13.8672L8.74207 18.9068L8.65546 16.4032L6.15625 13.8672Z" fill="#E27525" stroke="#E27525" stroke-width="0.25" stroke-linecap="round" stroke-linejoin="round"/>
<path d="M19.3552 16.4032L19.2578 18.9068L21.8436 13.8672L19.3552 16.4032Z" fill="#E27525" stroke="#E27525" stroke-width="0.25" stroke-linecap="round" stroke-linejoin="round"/>
<path d="M12.3235 14.1484L11.75 17.3104L12.4749 21.0442L12.6372 16.1233L12.3235 14.1484Z" fill="#E27525" stroke="#E27525" stroke-width="0.25" stroke-linecap="round" stroke-linejoin="round"/>
<path d="M15.676 14.1484L15.373 16.1126L15.5245 21.0442L16.2494 17.3104L15.676 14.1484Z" fill="#E27525" stroke="#E27525" stroke-width="0.25" stroke-linecap="round" stroke-linejoin="round"/>
<path d="M16.2503 17.3089L15.5254 21.0426L16.0447 21.4096L19.2581 18.906L19.3554 16.4023L16.2503 17.3089Z" fill="#F5841F" stroke="#F5841F" stroke-width="0.25" stroke-linecap="round" stroke-linejoin="round"/>
<path d="M8.65625 16.4023L8.74286 18.906L11.9561 21.4096L12.4755 21.0426L11.7506 17.3089L8.65625 16.4023Z" fill="#F5841F" stroke="#F5841F" stroke-width="0.25" stroke-linecap="round" stroke-linejoin="round"/>
<path d="M16.3155 24.8532L16.3479 23.828L16.0666 23.5906H11.9337L11.6632 23.828L11.6848 24.8532L8.22266 23.2129L9.43441 24.2057L11.8904 25.9H16.099L18.5658 24.2057L19.7668 23.2129L16.3155 24.8532Z" fill="#C0AC9D" stroke="#C0AC9D" stroke-width="0.25" stroke-linecap="round" stroke-linejoin="round"/>
<path d="M16.0458 21.4098L15.5265 21.043H12.4755L11.9562 21.4098L11.6641 23.8272L11.9346 23.5897H16.0675L16.3488 23.8272L16.0458 21.4098Z" fill="#161616" stroke="#161616" stroke-width="0.25" stroke-linecap="round" stroke-linejoin="round"/>
<path d="M27.0805 8.62232L28.0002 4.1547L26.6153 0L16.0449 7.82382L20.1129 11.2554L25.8579 12.9282L27.1238 11.4497L26.5721 11.0504L27.4484 10.2519L26.7776 9.73388L27.654 9.0648L27.0805 8.62232Z" fill="#763E1A" stroke="#763E1A" stroke-width="0.25" stroke-linecap="round" stroke-linejoin="round"/>
<path d="M0 4.1547L0.930457 8.62232L0.3354 9.0648L1.22258 9.73388L0.551783 10.2519L1.42814 11.0504L0.876357 11.4497L2.14221 12.9282L7.88728 11.2554L11.9553 7.82382L1.38487 0L0 4.1547Z" fill="#763E1A" stroke="#763E1A" stroke-width="0.25" stroke-linecap="round" stroke-linejoin="round"/>
<path d="M25.8576 12.9285L20.1125 11.2559L21.8436 13.8674L19.2578 18.907L22.6767 18.8638H27.7834L25.8576 12.9285Z" fill="#F5841F" stroke="#F5841F" stroke-width="0.25" stroke-linecap="round" stroke-linejoin="round"/>
<path d="M7.88656 11.2559L2.14157 12.9285L0.226562 18.8638H5.32243L8.74128 18.907L6.15551 13.8674L7.88656 11.2559Z" fill="#F5841F" stroke="#F5841F" stroke-width="0.25" stroke-linecap="round" stroke-linejoin="round"/>
<path d="M15.6771 14.1471L16.0449 7.82323L17.711 3.32324H10.2891L11.9552 7.82323L12.3231 14.1471L12.4637 16.1327L12.4745 21.0428H15.5256L15.5364 16.1327L15.6771 14.1471Z" fill="#F5841F" stroke="#F5841F" stroke-width="0.25" stroke-linecap="round" stroke-linejoin="round"/>
</g>
<defs>
<clipPath id="clip0_8_202143">
<rect width="28" height="28" fill="white"/>
</clipPath>
</defs>
</svg>
