<svg width="28" height="28" viewBox="0 0 28 28" fill="none" xmlns="http://www.w3.org/2000/svg">
<path d="M0 7C0 3.134 3.134 0 7 0H21C24.866 0 28 3.134 28 7V21C28 24.866 24.866 28 21 28H7C3.134 28 0 24.866 0 21V7Z" fill="white"/>
<path fill-rule="evenodd" clip-rule="evenodd" d="M21 0.291667H7C3.29509 0.291667 0.291667 3.29509 0.291667 7V21C0.291667 24.7049 3.29509 27.7083 7 27.7083H21C24.7049 27.7083 27.7083 24.7049 27.7083 21V7C27.7083 3.29509 24.7049 0.291667 21 0.291667ZM7 0C3.134 0 0 3.134 0 7V21C0 24.866 3.134 28 7 28H21C24.866 28 28 24.866 28 21V7C28 3.134 24.866 0 21 0H7Z" fill="#E7E3EB"/>
<path fill-rule="evenodd" clip-rule="evenodd" d="M19.384 12.7493C18.9274 12.2927 18.9274 11.5524 19.384 11.0958C19.8406 10.6392 20.5809 10.6392 21.0375 11.0958C21.4941 11.5524 21.4941 12.2927 21.0375 12.7493C20.5809 13.2058 19.8406 13.2058 19.384 12.7493ZM15.457 16.6763C15.1146 16.3338 15.1146 15.7786 15.457 15.4362C15.7995 15.0937 16.3547 15.0937 16.6972 15.4362C17.0396 15.7786 17.0396 16.3338 16.6972 16.6763C16.3547 17.0187 15.7995 17.0187 15.457 16.6763ZM21.6576 14.6094C21.3151 14.267 21.3151 13.7118 21.6576 13.3693C22 13.0268 22.5552 13.0268 22.8977 13.3693C23.2401 13.7118 23.2401 14.267 22.8977 14.6094C22.5552 14.9518 22 14.9518 21.6576 14.6094ZM19.5907 16.6763C19.2482 16.3338 19.2482 15.7786 19.5907 15.4362C19.9332 15.0937 20.4884 15.0937 20.8308 15.4362C21.1732 15.7786 21.1732 16.3338 20.8308 16.6763C20.4884 17.0187 19.9332 17.0187 19.5907 16.6763ZM23.9311 16.4696C23.7028 16.2413 23.7028 15.8711 23.9311 15.6428C24.1594 15.4145 24.5295 15.4145 24.7578 15.6428C24.9861 15.8711 24.9861 16.2413 24.7578 16.4696C24.5295 16.6978 24.1594 16.6978 23.9311 16.4696ZM21.8642 18.5364C21.6359 18.3081 21.6359 17.938 21.8642 17.7097C22.0925 17.4814 22.4627 17.4814 22.691 17.7097C22.9192 17.938 22.9192 18.3081 22.691 18.5364C22.4627 18.7647 22.0925 18.7647 21.8642 18.5364ZM17.3172 14.8161C16.8606 14.3595 16.8606 13.6192 17.3172 13.1626C17.7738 12.706 18.5141 12.706 18.9707 13.1626C19.4272 13.6192 19.4272 14.3595 18.9707 14.8161C18.5141 15.2727 17.7738 15.2727 17.3172 14.8161ZM17.3172 10.6824C16.8606 10.2259 16.8606 9.48554 17.3172 9.02893C17.7738 8.57239 18.5141 8.57239 18.9707 9.02893C19.4272 9.48554 19.4272 10.2259 18.9707 10.6824C18.5141 11.139 17.7738 11.139 17.3172 10.6824ZM15.2503 12.7493C14.7938 12.2927 14.7938 11.5524 15.2503 11.0958C15.7069 10.6392 16.4473 10.6392 16.9038 11.0958C17.3604 11.5524 17.3604 12.2927 16.9038 12.7493C16.4473 13.2058 15.7069 13.2058 15.2503 12.7493ZM11.0974 12.7493C10.6409 12.2927 10.6409 11.5524 11.0974 11.0958C11.554 10.6392 12.2944 10.6392 12.7509 11.0958C13.2075 11.5524 13.2075 12.2927 12.7509 12.7493C12.2944 13.2058 11.554 13.2058 11.0974 12.7493ZM7.17051 16.6763C6.82803 16.3338 6.82803 15.7786 7.17051 15.4362C7.51295 15.0937 8.06812 15.0937 8.41056 15.4362C8.753 15.7786 8.753 16.3338 8.41056 16.6763C8.06812 17.0187 7.51295 17.0187 7.17051 16.6763ZM13.371 14.6094C13.0285 14.267 13.0285 13.7118 13.371 13.3693C13.7134 13.0268 14.2686 13.0268 14.6111 13.3693C14.9535 13.7118 14.9535 14.267 14.6111 14.6094C14.2686 14.9518 13.7134 14.9518 13.371 14.6094ZM11.3041 16.6763C10.9617 16.3338 10.9617 15.7786 11.3041 15.4362C11.6466 15.0937 12.2018 15.0937 12.5443 15.4362C12.8867 15.7786 12.8867 16.3338 12.5443 16.6763C12.2018 17.0187 11.6466 17.0187 11.3041 16.6763ZM3.24349 16.4696C3.01519 16.2413 3.01519 15.8711 3.24349 15.6428C3.47178 15.4145 3.84193 15.4145 4.07022 15.6428C4.29852 15.8711 4.29852 16.2413 4.07022 16.4696C3.84193 16.6978 3.47178 16.6978 3.24349 16.4696ZM5.31032 18.5364C5.08203 18.3081 5.08203 17.938 5.31032 17.7097C5.53862 17.4814 5.90876 17.4814 6.13706 17.7097C6.36536 17.938 6.36536 18.3081 6.13706 18.5364C5.90876 18.7647 5.53862 18.7647 5.31032 18.5364ZM13.5777 18.5364C13.3494 18.3081 13.3494 17.938 13.5777 17.7097C13.8059 17.4814 14.1761 17.4814 14.4044 17.7097C14.6327 17.938 14.6327 18.3081 14.4044 18.5364C14.1761 18.7647 13.8059 18.7647 13.5777 18.5364ZM5.10364 14.6094C4.76119 14.267 4.76119 13.7118 5.10364 13.3693C5.44609 13.0268 6.0013 13.0268 6.34374 13.3693C6.68619 13.7118 6.68619 14.267 6.34374 14.6094C6.0013 14.9518 5.44609 14.9518 5.10364 14.6094ZM9.03062 14.8161C8.57401 14.3595 8.57401 13.6192 9.03062 13.1626C9.48723 12.706 10.2275 12.706 10.6841 13.1626C11.1407 13.6192 11.1407 14.3595 10.6841 14.8161C10.2275 15.2727 9.48723 15.2727 9.03062 14.8161ZM9.03062 10.6824C8.57401 10.2259 8.57401 9.48554 9.03062 9.02893C9.48723 8.57239 10.2275 8.57239 10.6841 9.02893C11.1407 9.48554 11.1407 10.2259 10.6841 10.6824C10.2275 11.139 9.48723 11.139 9.03062 10.6824ZM6.96379 12.7493C6.5072 12.2927 6.5072 11.5524 6.96379 11.0958C7.42041 10.6392 8.16066 10.6392 8.61727 11.0958C9.07388 11.5524 9.07388 12.2927 8.61727 12.7493C8.16066 13.2058 7.42041 13.2058 6.96379 12.7493Z" fill="#1D222A"/>
</svg>
