<svg width="170" height="29" viewBox="0 0 170 29" fill="none" xmlns="http://www.w3.org/2000/svg">
<path d="M59.08 9.576L62.36 21H64.232L66.552 12.184H66.616L68.936 21H70.792L74.088 9.576H72.12L69.896 18.472H69.832L67.496 9.576H65.672L63.336 18.472H63.272L61.048 9.576H59.08ZM78.8599 12.504C77.8359 12.504 77.0039 12.68 76.3959 13.064C75.6919 13.48 75.2439 14.152 75.0679 15.048L76.7479 15.192C76.8439 14.728 77.0839 14.392 77.4679 14.168C77.7879 13.976 78.2199 13.88 78.7479 13.88C79.9959 13.88 80.6199 14.456 80.6199 15.608V15.944L78.7639 15.992C77.5479 16.024 76.5879 16.264 75.9159 16.744C75.1799 17.24 74.8119 17.96 74.8119 18.888C74.8119 19.576 75.0679 20.136 75.5959 20.568C76.0759 21 76.7479 21.224 77.6119 21.224C78.3479 21.224 78.9879 21.08 79.5319 20.824C80.0119 20.584 80.4119 20.248 80.7319 19.832V21H82.2999V15.72C82.2999 14.712 82.0439 13.944 81.5479 13.416C80.9719 12.808 80.0759 12.504 78.8599 12.504ZM80.6199 17.176V17.656C80.6199 18.296 80.3479 18.84 79.8359 19.272C79.3239 19.704 78.7159 19.928 77.9959 19.928C77.5639 19.928 77.2119 19.816 76.9559 19.608C76.6839 19.4 76.5559 19.144 76.5559 18.824C76.5559 17.8 77.3239 17.256 78.8759 17.224L80.6199 17.176ZM84.4333 9.352V21H86.1293V9.352H84.4333ZM88.4333 9.352V21H90.1293V9.352H88.4333ZM95.7453 12.504C94.5293 12.504 93.5533 12.92 92.8493 13.768C92.1133 14.6 91.7613 15.624 91.7613 16.856C91.7613 18.216 92.1453 19.288 92.9133 20.088C93.6173 20.84 94.5933 21.224 95.8093 21.224C96.9133 21.224 97.8253 20.904 98.5453 20.28C99.1213 19.768 99.4893 19.112 99.6813 18.344H97.9853C97.7613 18.824 97.5213 19.192 97.2333 19.416C96.8653 19.688 96.3853 19.832 95.7933 19.832C95.1213 19.832 94.5933 19.608 94.2093 19.192C93.8253 18.76 93.6173 18.136 93.5533 17.336H99.8253C99.8093 15.864 99.4733 14.712 98.8333 13.88C98.1293 12.952 97.0893 12.504 95.7453 12.504ZM95.7933 13.896C97.1373 13.896 97.8893 14.616 98.0493 16.056H93.5853C93.6813 15.352 93.9213 14.824 94.2733 14.456C94.6573 14.072 95.1533 13.896 95.7933 13.896ZM103.785 10.056L102.089 10.76V12.728H100.553V14.136H102.089V18.936C102.089 19.592 102.233 20.088 102.553 20.44C102.873 20.808 103.401 21 104.105 21H105.465V19.592H104.377C104.169 19.592 104.025 19.528 103.929 19.432C103.833 19.32 103.785 19.16 103.785 18.936V14.136H105.673V12.728H103.785V10.056ZM112.158 9.352C110.334 9.352 108.958 9.944 107.998 11.16C107.134 12.232 106.718 13.608 106.718 15.304C106.718 17.032 107.118 18.408 107.95 19.432C108.894 20.616 110.302 21.224 112.174 21.224C113.406 21.224 114.462 20.872 115.342 20.168C116.286 19.416 116.878 18.376 117.134 17.048H115.438C115.214 17.944 114.814 18.616 114.238 19.064C113.694 19.48 112.99 19.688 112.158 19.688C110.878 19.688 109.934 19.288 109.326 18.488C108.75 17.736 108.462 16.68 108.462 15.304C108.462 13.976 108.75 12.92 109.342 12.152C109.966 11.304 110.894 10.888 112.126 10.888C112.958 10.888 113.63 11.064 114.174 11.432C114.718 11.8 115.086 12.376 115.278 13.144H116.974C116.798 11.992 116.286 11.064 115.454 10.392C114.59 9.688 113.486 9.352 112.158 9.352ZM122.549 12.504C121.301 12.504 120.293 12.92 119.541 13.752C118.789 14.568 118.421 15.608 118.421 16.872C118.421 18.12 118.789 19.16 119.525 19.96C120.293 20.792 121.301 21.224 122.549 21.224C123.797 21.224 124.805 20.792 125.573 19.96C126.309 19.16 126.677 18.12 126.677 16.872C126.677 15.608 126.293 14.568 125.557 13.752C124.805 12.92 123.797 12.504 122.549 12.504ZM122.549 13.896C123.333 13.896 123.941 14.2 124.389 14.824C124.773 15.352 124.965 16.04 124.965 16.872C124.965 17.688 124.773 18.36 124.389 18.904C123.941 19.512 123.333 19.832 122.549 19.832C121.765 19.832 121.157 19.512 120.725 18.904C120.341 18.376 120.165 17.704 120.165 16.872C120.165 16.04 120.341 15.352 120.725 14.824C121.157 14.2 121.765 13.896 122.549 13.896ZM132.48 12.504C131.968 12.504 131.504 12.6 131.088 12.824C130.672 13.032 130.304 13.336 129.984 13.752V12.728H128.288V21H129.984V16.024C130.048 15.352 130.288 14.824 130.672 14.44C131.024 14.088 131.456 13.928 131.936 13.928C133.216 13.928 133.872 14.632 133.872 16.04V21H135.568V15.896C135.568 13.624 134.528 12.504 132.48 12.504ZM141.699 12.504C141.187 12.504 140.723 12.6 140.307 12.824C139.891 13.032 139.523 13.336 139.203 13.752V12.728H137.507V21H139.203V16.024C139.267 15.352 139.507 14.824 139.891 14.44C140.243 14.088 140.675 13.928 141.155 13.928C142.435 13.928 143.091 14.632 143.091 16.04V21H144.787V15.896C144.787 13.624 143.747 12.504 141.699 12.504ZM150.23 12.504C149.014 12.504 148.038 12.92 147.334 13.768C146.598 14.6 146.246 15.624 146.246 16.856C146.246 18.216 146.63 19.288 147.398 20.088C148.102 20.84 149.078 21.224 150.294 21.224C151.398 21.224 152.31 20.904 153.03 20.28C153.606 19.768 153.974 19.112 154.166 18.344H152.47C152.246 18.824 152.006 19.192 151.718 19.416C151.35 19.688 150.87 19.832 150.278 19.832C149.606 19.832 149.078 19.608 148.694 19.192C148.31 18.76 148.102 18.136 148.038 17.336H154.31C154.294 15.864 153.958 14.712 153.318 13.88C152.614 12.952 151.574 12.504 150.23 12.504ZM150.278 13.896C151.622 13.896 152.374 14.616 152.534 16.056H148.07C148.166 15.352 148.406 14.824 148.758 14.456C149.142 14.072 149.638 13.896 150.278 13.896ZM159.437 12.504C158.157 12.504 157.165 12.936 156.445 13.8C155.773 14.6 155.437 15.624 155.437 16.872C155.437 18.152 155.773 19.176 156.461 19.976C157.165 20.808 158.141 21.224 159.405 21.224C160.461 21.224 161.325 20.952 161.965 20.424C162.605 19.88 163.037 19.048 163.229 17.944H161.549C161.389 19.192 160.685 19.832 159.421 19.832C158.685 19.832 158.141 19.56 157.773 19.048C157.373 18.52 157.181 17.784 157.181 16.856C157.181 15.928 157.373 15.192 157.789 14.68C158.189 14.152 158.733 13.896 159.437 13.896C160.013 13.896 160.477 14.024 160.829 14.296C161.181 14.552 161.405 14.968 161.517 15.528H163.197C163.037 14.504 162.621 13.736 161.981 13.224C161.341 12.744 160.493 12.504 159.437 12.504ZM167.191 10.056L165.495 10.76V12.728H163.959V14.136H165.495V18.936C165.495 19.592 165.639 20.088 165.959 20.44C166.279 20.808 166.807 21 167.511 21H168.871V19.592H167.783C167.575 19.592 167.431 19.528 167.335 19.432C167.239 19.32 167.191 19.16 167.191 18.936V14.136H169.079V12.728H167.191V10.056Z" fill="white"/>
<path d="M9.62187 5.66609C17.2866 -1.8887 29.7135 -1.8887 37.3782 5.66609L38.3006 6.57532C38.6839 6.95306 38.6839 7.5655 38.3006 7.94324L35.1451 11.0535C34.9535 11.2424 34.6428 11.2424 34.4512 11.0535L33.1818 9.80233C27.8347 4.53192 19.1654 4.53192 13.8183 9.80233L12.4588 11.1423C12.2672 11.3311 11.9566 11.3311 11.7649 11.1423L8.6094 8.03197C8.22616 7.65423 8.22616 7.0418 8.6094 6.66406L9.62187 5.66609ZM43.9041 12.0985L46.7126 14.8667C47.0958 15.2444 47.0958 15.8569 46.7126 16.2346L34.0491 28.7167C33.6659 29.0944 33.0446 29.0944 32.6613 28.7167C32.6613 28.7167 32.6613 28.7167 32.6613 28.7167L23.6736 19.8578C23.5778 19.7634 23.4224 19.7634 23.3266 19.8578C23.3266 19.8578 23.3266 19.8578 23.3266 19.8578L14.3391 28.7167C13.9558 29.0944 13.3345 29.0944 12.9512 28.7167C12.9512 28.7167 12.9512 28.7167 12.9512 28.7167L0.287426 16.2345C-0.0958086 15.8567 -0.0958086 15.2443 0.287426 14.8665L3.09587 12.0984C3.47911 11.7206 4.10045 11.7206 4.48369 12.0984L13.4716 20.9574C13.5674 21.0518 13.7227 21.0518 13.8185 20.9574C13.8185 20.9574 13.8185 20.9574 13.8185 20.9574L22.8059 12.0984C23.1892 11.7206 23.8105 11.7206 24.1938 12.0983C24.1938 12.0983 24.1938 12.0983 24.1938 12.0983L33.1816 20.9574C33.2775 21.0518 33.4328 21.0518 33.5286 20.9574L42.5163 12.0985C42.8996 11.7208 43.5209 11.7208 43.9041 12.0985Z" fill="#3B99FC"/>
</svg>
