<svg width="148" height="34" viewBox="0 0 148 34" fill="none" xmlns="http://www.w3.org/2000/svg">
<path fill-rule="evenodd" clip-rule="evenodd" d="M1.17257 5.80125C0 8.075 0 11.05 0 17C0 22.95 0 25.925 1.17257 28.1988C2.2053 30.1963 3.85119 31.8219 5.87361 32.8419C8.17572 34 11.1878 34 17.212 34C23.2363 34 26.2484 34 28.5505 32.8419C30.5729 31.8219 32.2188 30.1963 33.2515 28.1988C34.4241 25.925 34.4241 22.95 34.4241 17C34.4241 11.05 34.4241 8.075 33.2515 5.80125C32.2188 3.80375 30.5729 2.17813 28.5505 1.15813C26.2484 0 23.2363 0 17.212 0C11.1878 0 8.17572 0 5.87361 1.15813C3.85119 2.17813 2.2053 3.80375 1.17257 5.80125ZM25.8019 9.16935C26.1031 9.16935 26.3882 9.29157 26.598 9.49879C26.8078 9.71129 26.9262 9.99815 26.9207 10.2903C26.867 13.4566 26.7433 15.8791 26.512 17.7969C26.286 19.7147 25.9472 21.1384 25.4362 22.2913C25.092 23.0616 24.667 23.6991 24.1668 24.2409C23.4944 24.9581 22.7253 25.4788 21.8862 25.9729C21.5275 26.1847 21.1545 26.3939 20.7632 26.6134C19.9285 27.0816 19.0106 27.5965 17.9705 28.2838C17.594 28.5334 17.1045 28.5334 16.728 28.2838C15.6719 27.5884 14.7419 27.0672 13.8995 26.5952C13.7122 26.4903 13.5292 26.3878 13.3501 26.2863C12.3659 25.7231 11.4783 25.1866 10.7038 24.4109C10.1874 23.9009 9.74102 23.2794 9.386 22.5409C8.9019 21.5528 8.57379 20.3575 8.33175 18.8116C8.00902 16.745 7.84766 14.0409 7.78849 10.2903C7.78311 9.99815 7.89607 9.71129 8.10584 9.49879C8.31561 9.29157 8.60607 9.16935 8.90728 9.16935H9.36987C10.7952 9.17472 13.9418 9.03657 16.6634 6.94344C17.0668 6.63531 17.6317 6.63531 18.035 6.94344C20.7567 9.03657 23.9033 9.17472 25.334 9.16935H25.8019ZM23.3008 21.5847C23.6504 20.8728 23.941 19.89 24.1614 18.4769C24.425 16.7875 24.5864 14.4925 24.6617 11.3688C22.9835 11.3209 20.1005 11.0022 17.3519 9.17472C14.6034 10.9969 11.7204 11.3156 10.0476 11.3688C10.1067 13.9506 10.225 15.9588 10.4133 17.5366C10.6284 19.3322 10.9351 20.5488 11.3169 21.4041C11.5698 21.9725 11.8495 22.3816 12.183 22.7428C12.6294 23.2263 13.1941 23.6247 13.9633 24.0816C14.2824 24.2706 14.6341 24.4673 15.0171 24.6814C15.6993 25.0627 16.4803 25.4994 17.3519 26.0472C18.2074 25.5083 18.9773 25.0762 19.6515 24.6976C19.8548 24.5835 20.0493 24.4743 20.2349 24.3684C21.1816 23.8319 21.8809 23.3856 22.4026 22.865C22.7522 22.5091 23.0373 22.1213 23.3008 21.5847Z" fill="#3375BB"/>
<path d="M48.3133 13.6071H44.4578V11.3631H54.9571V13.6071H51.1016V23.2631H48.3133V13.6071ZM58.1146 15.3241C58.4359 14.8821 58.8662 14.5478 59.4056 14.3211C59.9563 14.0945 60.5874 13.9811 61.2989 13.9811V16.4291C61.0005 16.4065 60.7997 16.3951 60.6965 16.3951C59.9276 16.3951 59.3252 16.6105 58.8892 17.0411C58.4531 17.4605 58.2351 18.0951 58.2351 18.9451V23.2631H55.5501V14.1171H58.1146V15.3241ZM71.7752 14.1171V23.2631H69.2278V22.1751C68.8721 22.5718 68.4476 22.8778 67.9541 23.0931C67.4607 23.2971 66.9271 23.3991 66.3534 23.3991C65.1371 23.3991 64.1732 23.0535 63.4618 22.3621C62.7503 21.6708 62.3946 20.6451 62.3946 19.2851V14.1171H65.0797V18.8941C65.0797 20.3675 65.7051 21.1041 66.9558 21.1041C67.5984 21.1041 68.1148 20.9001 68.5049 20.4921C68.8951 20.0728 69.0901 19.4551 69.0901 18.6391V14.1171H71.7752ZM76.8617 23.3991C76.093 23.3991 75.3414 23.3085 74.607 23.1271C73.8726 22.9345 73.2874 22.6965 72.8513 22.4131L73.7464 20.5091C74.1594 20.7698 74.6586 20.9851 75.2438 21.1551C75.829 21.3138 76.4028 21.3931 76.965 21.3931C78.101 21.3931 78.669 21.1155 78.669 20.5601C78.669 20.2995 78.5141 20.1125 78.2043 19.9991C77.8945 19.8858 77.4183 19.7895 76.7757 19.7101C76.0183 19.5968 75.393 19.4665 74.8996 19.3191C74.4062 19.1718 73.9759 18.9111 73.6087 18.5371C73.253 18.1631 73.0751 17.6305 73.0751 16.9391C73.0751 16.3611 73.2415 15.8511 73.5742 15.4091C73.9185 14.9558 74.4119 14.6045 75.0545 14.3551C75.7085 14.1058 76.4774 13.9811 77.3609 13.9811C78.0149 13.9811 78.6633 14.0548 79.3058 14.2021C79.9599 14.3381 80.4993 14.5308 80.9238 14.7801L80.0288 16.6671C79.2141 16.2138 78.3248 15.9871 77.3609 15.9871C76.7872 15.9871 76.3569 16.0665 76.07 16.2251C75.7832 16.3838 75.6397 16.5878 75.6397 16.8371C75.6397 17.1205 75.7946 17.3188 76.1044 17.4321C76.4142 17.5455 76.9077 17.6531 77.5846 17.7551C78.342 17.8798 78.9616 18.0158 79.4435 18.1631C79.9255 18.2991 80.3444 18.5541 80.7 18.9281C81.0558 19.3021 81.2336 19.8235 81.2336 20.4921C81.2336 21.0588 81.0615 21.5631 80.7172 22.0051C80.373 22.4471 79.8681 22.7928 79.2026 23.0421C78.5485 23.2801 77.7683 23.3991 76.8617 23.3991ZM88.3465 22.8211C88.0826 23.0138 87.7556 23.1611 87.3654 23.2631C86.9868 23.3538 86.5852 23.3991 86.1606 23.3991C85.059 23.3991 84.2041 23.1215 83.596 22.5661C82.9993 22.0108 82.701 21.1948 82.701 20.1181V16.3611H81.2724V14.3211H82.701V12.0941H85.386V14.3211H87.6925V16.3611H85.386V20.0841C85.386 20.4695 85.4836 20.7698 85.6786 20.9851C85.8852 21.1891 86.1721 21.2911 86.5392 21.2911C86.9638 21.2911 87.3253 21.1778 87.6236 20.9511L88.3465 22.8211ZM112.095 11.3631L108.153 23.2631H105.158L102.508 15.2051L99.771 23.2631H96.7933L92.8345 11.3631H95.7261L98.4456 19.7271L101.286 11.3631H103.867L106.621 19.7951L109.427 11.3631H112.095ZM115.992 13.9811C117.426 13.9811 118.528 14.3211 119.297 15.0011C120.066 15.6698 120.45 16.6841 120.45 18.0441V23.2631H117.937V22.1241C117.432 22.9741 116.491 23.3991 115.114 23.3991C114.403 23.3991 113.783 23.2801 113.255 23.0421C112.739 22.8041 112.343 22.4755 112.068 22.0561C111.792 21.6368 111.655 21.1608 111.655 20.6281C111.655 19.7781 111.976 19.1095 112.618 18.6221C113.272 18.1348 114.276 17.8911 115.63 17.8911H117.765C117.765 17.3131 117.587 16.8711 117.231 16.5651C116.875 16.2478 116.342 16.0891 115.63 16.0891C115.137 16.0891 114.649 16.1685 114.167 16.3271C113.697 16.4745 113.295 16.6785 112.963 16.9391L111.999 15.0861C112.503 14.7348 113.106 14.4628 113.806 14.2701C114.517 14.0775 115.246 13.9811 115.992 13.9811ZM115.785 21.6141C116.245 21.6141 116.651 21.5121 117.007 21.3081C117.363 21.0928 117.615 20.7811 117.765 20.3731V19.4381H115.923C114.822 19.4381 114.271 19.7951 114.271 20.5091C114.271 20.8491 114.403 21.1211 114.667 21.3251C114.942 21.5178 115.315 21.6141 115.785 21.6141ZM122.364 10.6491H125.049V23.2631H122.364V10.6491ZM127.024 10.6491H129.709V23.2631H127.024V10.6491ZM140.756 18.7241C140.756 18.7581 140.738 18.9961 140.704 19.4381H133.699C133.825 20.0048 134.123 20.4525 134.594 20.7811C135.065 21.1098 135.65 21.2741 136.349 21.2741C136.831 21.2741 137.256 21.2061 137.623 21.0701C138.002 20.9228 138.352 20.6961 138.673 20.3901L140.101 21.9201C139.23 22.9061 137.956 23.3991 136.28 23.3991C135.237 23.3991 134.313 23.2008 133.509 22.8041C132.707 22.3961 132.087 21.8351 131.65 21.1211C131.215 20.4071 130.996 19.5968 130.996 18.6901C130.996 17.7948 131.209 16.9901 131.633 16.2761C132.07 15.5508 132.66 14.9898 133.406 14.5931C134.163 14.1851 135.007 13.9811 135.936 13.9811C136.843 13.9811 137.664 14.1738 138.397 14.5591C139.132 14.9445 139.706 15.4998 140.119 16.2251C140.544 16.9391 140.756 17.7721 140.756 18.7241ZM135.953 15.9871C135.346 15.9871 134.835 16.1571 134.422 16.4971C134.008 16.8371 133.757 17.3018 133.664 17.8911H138.225C138.134 17.3131 137.881 16.8541 137.468 16.5141C137.055 16.1628 136.55 15.9871 135.953 15.9871ZM148 22.8211C147.735 23.0138 147.408 23.1611 147.019 23.2631C146.64 23.3538 146.238 23.3991 145.814 23.3991C144.712 23.3991 143.857 23.1215 143.249 22.5661C142.652 22.0108 142.354 21.1948 142.354 20.1181V16.3611H140.926V14.3211H142.354V12.0941H145.04V14.3211H147.346V16.3611H145.04V20.0841C145.04 20.4695 145.136 20.7698 145.332 20.9851C145.539 21.1891 145.825 21.2911 146.193 21.2911C146.617 21.2911 146.978 21.1778 147.277 20.9511L148 22.8211Z" fill="#3375BB"/>
</svg>
