<svg width="28" height="28" viewBox="0 0 28 28" fill="none" xmlns="http://www.w3.org/2000/svg">
<path d="M6.31556 9.12612C10.5499 4.95796 17.4151 4.95796 21.6494 9.12612L22.159 9.62777C22.3707 9.83617 22.3707 10.1741 22.159 10.3825L20.4157 12.0985C20.3099 12.2027 20.1382 12.2027 20.0324 12.0985L19.3311 11.4082C16.3771 8.50037 11.5878 8.50037 8.63384 11.4082L7.88283 12.1475C7.77697 12.2517 7.60534 12.2517 7.49948 12.1475L5.75622 10.4314C5.5445 10.223 5.5445 9.88513 5.75622 9.67672L6.31556 9.12612ZM25.2546 12.675L26.8061 14.2023C27.0178 14.4107 27.0178 14.7486 26.8061 14.957L19.8103 21.8437C19.5986 22.0521 19.2553 22.0521 19.0436 21.8437C19.0436 21.8437 19.0436 21.8437 19.0436 21.8437L14.0783 16.956C14.0254 16.9039 13.9396 16.9039 13.8867 16.956C13.8867 16.956 13.8867 16.956 13.8867 16.956L8.92154 21.8437C8.70982 22.0521 8.36656 22.0521 8.15484 21.8437C8.15484 21.8437 8.15484 21.8437 8.15484 21.8437L1.15879 14.9569C0.947071 14.7485 0.947071 14.4106 1.15879 14.2022L2.7103 12.675C2.92201 12.4666 3.26527 12.4666 3.47699 12.675L8.4423 17.5627C8.49523 17.6148 8.58104 17.6148 8.63397 17.5627C8.63397 17.5627 8.63397 17.5627 8.63397 17.5627L13.599 12.675C13.8107 12.4665 14.154 12.4665 14.3657 12.6749C14.3657 12.6749 14.3657 12.6749 14.3657 12.6749L19.331 17.5627C19.384 17.6148 19.4698 17.6148 19.5227 17.5627L24.4879 12.675C24.6996 12.4666 25.0429 12.4666 25.2546 12.675Z" fill="#3B99FC"/>
</svg>
