<svg width="28" height="28" viewBox="0 0 28 28" fill="none" xmlns="http://www.w3.org/2000/svg">
<path fill-rule="evenodd" clip-rule="evenodd" d="M22.8303 4.60043C23.1452 4.60043 23.4432 4.72979 23.6625 4.94911C23.8817 5.17401 24.0055 5.47761 23.9998 5.7868C23.9437 9.13792 23.8143 11.7018 23.5725 13.7316C23.3364 15.7614 22.9821 17.2682 22.448 18.4884C22.0882 19.3036 21.6439 19.9783 21.121 20.5518C20.4182 21.3109 19.6142 21.8619 18.737 22.3849C18.362 22.6091 17.9722 22.8305 17.5632 23.0628C16.6905 23.5583 15.7311 24.1032 14.6438 24.8307C14.2502 25.0949 13.7386 25.0949 13.345 24.8307C12.241 24.0947 11.2689 23.5431 10.3883 23.0436C10.1925 22.9325 10.0012 22.824 9.81396 22.7166C8.78508 22.1206 7.85733 21.5527 7.04767 20.7317C6.5079 20.192 6.04124 19.5341 5.67012 18.7526C5.16407 17.7067 4.82109 16.4417 4.56808 14.8055C4.23071 12.6183 4.06204 9.75639 4.00019 5.7868C3.99457 5.47761 4.11264 5.17401 4.33192 4.94911C4.5512 4.72979 4.85483 4.60043 5.1697 4.60043H5.65327C7.14322 4.60612 10.4324 4.4599 13.2775 2.24459C13.6992 1.91847 14.2896 1.91847 14.7113 2.24459C17.5564 4.4599 20.8456 4.60612 22.3412 4.60043H22.8303ZM20.2158 17.7406C20.5813 16.9871 20.885 15.9469 21.1154 14.4513C21.3909 12.6633 21.5597 10.2343 21.6384 6.92827C19.8841 6.87761 16.8704 6.5403 13.9972 4.60612C11.1241 6.53462 8.11036 6.87202 6.36169 6.92827C6.42353 9.66084 6.5472 11.7862 6.74398 13.4561C6.96889 15.3566 7.28944 16.6442 7.68858 17.5494C7.95288 18.151 8.24531 18.5839 8.59388 18.9662C9.06055 19.478 9.65089 19.8996 10.455 20.3832C10.7885 20.5833 11.1562 20.7914 11.5565 21.018C12.2696 21.4216 13.0861 21.8837 13.9972 22.4636C14.8915 21.8932 15.6962 21.4358 16.4011 21.0352C16.6136 20.9144 16.8169 20.7988 17.0109 20.6868C18.0005 20.1189 18.7315 19.6466 19.2768 19.0956C19.6423 18.7189 19.9404 18.3085 20.2158 17.7406Z" fill="#3375BB"/>
</svg>
